<?xml version="1.0" encoding="utf-8"?>
<!-- Generator: Adobe Illustrator 24.1.2, SVG Export Plug-In . SVG Version: 6.00 Build 0)  -->
<svg version="1.1" xmlns="http://www.w3.org/2000/svg" xmlns:xlink="http://www.w3.org/1999/xlink" x="0px" y="0px"
	 viewBox="0 0 500 500" style="enable-background:new 0 0 500 500;" xml:space="preserve">
<style type="text/css">
	.st0{fill:#262424;}
	.st1{fill:#9D252A;}
	.st2{fill:#C2242A;}
</style>
<g id="BACKGROUND">
</g>
<g id="OBJECTS">
	<g>
		<path class="st0" d="M500,249.99c0,64.73-24.74,123.75-65.27,168.09c-45.72,50.04-111.57,81.42-184.75,81.42
			c-73.04,0-138.72-31.24-184.41-81.08C24.82,374.04,0,314.89,0,249.99C0,112.19,111.91,0.5,249.99,0.5S500,112.19,500,249.99z"/>
		<path class="st1" d="M251.5,44.15c-110.28,0-144.8,106.53-148.14,154.15c-2.43,34.66,7.53,99.57,13.13,132.35
			c1.84,10.76,12.29,17.79,22.95,15.42c25.57-5.69,71.89-14.63,110.56-14.63L251.5,44.15z"/>
		<path class="st1" d="M251.5,44.15c110.28,0,141.78,106.53,145.13,154.15c2.43,34.66-7.53,99.57-13.13,132.35
			c-1.84,10.76-12.29,17.79-22.95,15.42c-25.57-5.69-71.89-14.63-110.56-14.63L251.5,44.15z"/>
		<path class="st1" d="M434.73,418.07c-45.72,50.04-111.57,81.42-184.75,81.42c-73.04,0-138.72-31.24-184.41-81.08
			c14.64-23.36,37.25-36.94,55.51-44.6c1.74-0.73,3.73-0.42,5.22,0.73l114.21,89.7c5.83,4.57,14.02,4.57,19.83,0l110.65-86.81
			c3.76-2.94,8.92-3.34,13.07-0.95C396.22,383.41,421.24,399.17,434.73,418.07z"/>
		<path class="st2" d="M169.84,227.83c15.04,46.19,46.45,75.19,80.16,75.19s74.52-32.94,84.91-75.19c0,0,13.25,8.95,22.56-1.43
			c9.31-10.38,15.75-49.41-1.43-49.77c-7.16,0-15.4,27.21-22.56,27.21c-7.16,0-64.09-31.87-61.94-80.92c0,0-20.41,64.09-67.31,86.29
			c0,0,36.48-33.65,41.82-87C246.03,122.21,232.66,189.63,169.84,227.83z"/>
	</g>
</g>
</svg>
