<svg id="Layer_1" data-name="Layer 1" xmlns="http://www.w3.org/2000/svg" viewBox="0 0 997.08 254.34"><defs><style>.cls-1{fill:#e41e26;}.cls-2{fill:#9b1c20;}.cls-3{fill:#b92025;}</style></defs><path class="cls-1" d="M250.65,236.77l-1.7,0-1,0c-1.06,0-2.12-.09-3.18-.17-.73,0-1.47-.1-2.19-.16l-1-.1-1.26-.14-1.78-.22q-.88-.12-1.77-.27c-.6-.08-1.19-.18-1.77-.29l-1.44-.26c-.6-.11-1.19-.23-1.78-.37a87.79,87.79,0,0,1-8.78-2.34l-1.67-.56-1.18-.42-.92-.34c-.57-.21-1.13-.42-1.68-.65q-3.9-1.53-7.61-3.41l-1.14-.59q-3.06-1.59-6-3.42c-.54-.34-1.08-.68-1.61-1-1.94-1.27-5-3.49-6.82-4.94l-.44-.35c-.47-.37-.93-.76-1.39-1.15-.94-.78-1.85-1.57-2.74-2.38-.45-.41-.88-.81-1.32-1.23-1.09-1-2.14-2.07-3.17-3.15l-1.1-1.17c-.27-.29-.54-.58-.79-.87-.4-.45-.81-.9-1.21-1.36q-3-3.42-5.58-7.14c-.35-.49-.69-1-1-1.49s-.59-.89-.88-1.33l-.93-1.44c-.3-.49-.6-1-.89-1.47s-.59-1-.87-1.5-.45-.8-.67-1.19c-.48-.86-.93-1.72-1.38-2.59-.25-.51-.52-1-.76-1.52-.39-.79-.76-1.6-1.12-2.4-.23-.48-.44-1-.65-1.47-.28-.65-.56-1.31-.82-2-.19-.45-.36-.91-.54-1.36-1-2.72-2-5.49-2.74-8.32a.45.45,0,0,1,0-.08,56.51,56.51,0,0,1-1.54-6.54l0-.17c-5-29.82,23-34.55,28-35.15a9.07,9.07,0,0,0,1.48-.33c3-.94,14.49-3.54,13.57,11.72,0,0,14.14-22.94-4.53-28.51a77,77,0,0,0-8.93-1.2h-.82a.28.28,0,0,0,0-.06,11.37,11.37,0,0,0-.73-1c-.12-.15-.25-.32-.4-.49-.28-.33-.6-.7-1-1.08-.22-.22-.46-.46-.72-.69a21.26,21.26,0,0,0-1.73-1.44l-1.1-.78-.67-.42a26.66,26.66,0,0,0-4.6-2.24c-.19-.08-.37-.14-.57-.21-.57-.21-1.16-.39-1.79-.57l-1.07-.29-.77-.17c-.25-.07-.52-.12-.78-.17l-.77-.14-1.19-.2h0a40.64,40.64,0,0,0-5.73-.39H111.69s.8,1.11,4.3,3.14a36,36,0,0,0,8.59,3.68h0l0,0h0l0,0a.1.1,0,0,0-.05,0,1.35,1.35,0,0,0-.12.12l-.21.21,0,0-.51.52a.1.1,0,0,0-.05.06,90.44,90.44,0,0,0-25,58.43c-.07,1.39-.1,2.8-.1,4.21A90.43,90.43,0,0,0,121,229.83l.22.25a90.55,90.55,0,0,0,68.1,30.76c1.67,0,3.34,0,5-.15a90.64,90.64,0,0,0,24.65-4.79c1.83-.64,3.64-1.33,5.41-2.08a90.77,90.77,0,0,0,26.52-17Z" transform="translate(-12.1 -21.65)"/><path class="cls-1" d="M228.33,234l-5.83,20.59c-1.17.5-2.37.94-3.58,1.36a90.94,90.94,0,0,1-24.65,4.79c-1.65.1-3.32.15-5,.15a90.58,90.58,0,0,1-67.9-30.52c-.07-.08-.15-.16-.21-.24a3,3,0,0,1-.22-.26,90.39,90.39,0,0,1-22.48-59.77c0-1.42,0-2.82.11-4.22a90.2,90.2,0,0,1,17.64-49.68c.14,1.8.38,3.68.7,5.6,0,.12,0,.2,0,.29a92.41,92.41,0,0,0,2.42,10.24.46.46,0,0,0,0,.13,137.35,137.35,0,0,0,4.3,13.05c.27.7.54,1.43.83,2.13.41,1,.84,2,1.29,3.09.33.78.65,1.54,1,2.31.57,1.26,1.14,2.52,1.75,3.74.38.81.79,1.61,1.21,2.39q1,2.06,2.15,4.06c.33.62.68,1.26,1,1.88.44.78.91,1.56,1.37,2.34s.92,1.55,1.38,2.3,1,1.51,1.47,2.28.91,1.38,1.39,2.07,1,1.57,1.6,2.34q4.11,5.82,8.76,11.19c.61.72,1.25,1.44,1.88,2.14.4.44.82.91,1.25,1.35.57.62,1.14,1.24,1.72,1.85,1.61,1.67,3.26,3.31,5,4.94.68.65,1.37,1.27,2.08,1.91,1.39,1.27,2.82,2.52,4.27,3.74.73.62,1.45,1.21,2.2,1.8l.68.56c2.84,2.26,7.65,5.75,10.71,7.74l2.51,1.61c3.05,1.91,6.15,3.69,9.35,5.37l1.79.92c3.87,2,7.87,3.74,11.94,5.35.86.35,1.74.69,2.63,1,.48.19,1,.36,1.45.54l1.85.65c.86.3,1.73.61,2.61.88q6.73,2.17,13.76,3.68Z" transform="translate(-12.1 -21.65)"/><path class="cls-2" d="M162.25,274.28c-2.58.16-5.2.23-7.81.23A142,142,0,0,1,47.67,226.29l-.34-.39a121.22,121.22,0,0,1,14.41-152c1-1,1.94-2,2.94-2.86a129.87,129.87,0,0,0,97.57,203.23Z" transform="translate(-12.1 -21.65)"/><path class="cls-3" d="M251,236.78a142.24,142.24,0,0,1-41.58,26.72c-2.79,1.19-5.62,2.27-8.5,3.27a142.38,142.38,0,0,1-38.63,7.51A129.87,129.87,0,0,1,64.68,71.05c.26-.26.5-.5.76-.72-2.38,2.89-55.87,70.9,34.71,148.84,2,1.76,4.15,3.42,6.33,5,.84.63,1.69,1.23,2.56,1.85,2.17,1.5,4.42,3,6.73,4.32,1.32.79,2.66,1.56,4,2.3.27.16.57.31.84.45s.74.41,1.14.62c1.39.7,2.76,1.43,4.19,2.1,2.44,1.2,5,2.32,7.53,3.37.17.08.35.15.54.22,17.31,7.12,36.74,11.37,56.83,13.48a3.5,3.5,0,0,0,.75.09c1.84.19,3.68.36,5.54.51a5.63,5.63,0,0,0,1,.09c1.92.15,3.87.31,5.81.41,1.13.09,2.29.16,3.4.23l2,.08.43,0h.24a4.35,4.35,0,0,1,.51,0q3,.12,5.93.2c2,.07,4,.09,6,.09.78,0,1.55,0,2.33,0h1.9a142.47,142.47,0,0,0,23.94-17.87Z" transform="translate(-12.1 -21.65)"/><path class="cls-3" d="M228.33,234l-5.83,20.59h-.3c-2,0-3.95-.12-5.92-.2a4.7,4.7,0,0,0-.53,0h-.67c-.67,0-1.32-.05-2-.1-1.12-.06-2.27-.13-3.41-.22-1.95-.1-3.89-.26-5.82-.42a6.48,6.48,0,0,1-1-.08c-1.87-.16-3.7-.32-5.55-.51a3.08,3.08,0,0,1-.75-.09c-20.08-2.12-39.51-6.36-56.83-13.48a5.09,5.09,0,0,1-.54-.22c-2.56-1.05-5.08-2.17-7.53-3.38-1.42-.67-2.8-1.38-4.19-2.08-.4-.21-.76-.4-1.13-.62l-.84-.45c-1.39-.75-2.73-1.51-4.05-2.31l-.06,0c-.07-.08-.15-.16-.21-.24a3,3,0,0,1-.22-.26,90.39,90.39,0,0,1-22.48-59.77c0-1.42,0-2.82.11-4.22a90.2,90.2,0,0,1,17.64-49.68c.14,1.8.38,3.68.7,5.6,0,.12,0,.2,0,.29a92.41,92.41,0,0,0,2.42,10.24.46.46,0,0,0,0,.13,137.35,137.35,0,0,0,4.3,13.05c.27.7.54,1.43.83,2.13.41,1,.84,2,1.29,3.09.33.78.65,1.54,1,2.31.57,1.26,1.14,2.52,1.75,3.74.38.81.79,1.61,1.21,2.39q1,2.06,2.15,4.06c.33.62.68,1.26,1,1.88.44.78.91,1.56,1.37,2.34s.92,1.55,1.38,2.3,1,1.51,1.47,2.28.91,1.38,1.39,2.07,1,1.57,1.6,2.34q4.11,5.82,8.76,11.19c.61.72,1.25,1.44,1.88,2.14.4.44.82.91,1.25,1.35.57.62,1.14,1.24,1.72,1.85,1.61,1.67,3.26,3.31,5,4.94.68.65,1.37,1.27,2.08,1.91,1.39,1.27,2.82,2.52,4.27,3.74.73.62,1.45,1.21,2.2,1.8l.68.56c2.84,2.26,7.65,5.75,10.71,7.74l2.51,1.61c3.05,1.91,6.15,3.69,9.35,5.37l1.79.92c3.87,2,7.87,3.74,11.94,5.35.86.35,1.74.69,2.63,1,.48.19,1,.36,1.45.54l1.85.65c.86.3,1.73.61,2.61.88q6.73,2.17,13.76,3.68Z" transform="translate(-12.1 -21.65)"/><path class="cls-1" d="M250.63,236.78a142.47,142.47,0,0,1-23.94,17.87h-1.9c-.78,0-1.55,0-2.33,0-2,0-4,0-6-.09s-3.95-.12-5.93-.2a4.35,4.35,0,0,0-.51,0h-.24l-.43,0-2-.08c-1.11-.07-2.27-.14-3.4-.23-1.94-.1-3.89-.26-5.81-.41a5.63,5.63,0,0,1-1-.09c-1.86-.15-3.7-.32-5.54-.51a3.5,3.5,0,0,1-.75-.09c-20.09-2.11-39.52-6.36-56.83-13.48-.19-.07-.37-.14-.54-.22-2.56-1.05-5.09-2.17-7.53-3.37-1.43-.67-2.8-1.4-4.19-2.1-.4-.21-.76-.4-1.14-.62s-.57-.29-.84-.45c-1.38-.74-2.72-1.51-4-2.3-2.31-1.36-4.56-2.82-6.73-4.32-.87-.62-1.72-1.22-2.56-1.85-2.18-1.59-4.28-3.25-6.33-5C9.57,141.23,63.06,73.22,65.44,70.33c-.26.22-.5.46-.76.72-1,.9-2,1.88-2.94,2.86a121.22,121.22,0,0,0-14.41,152A141.74,141.74,0,0,1,12.1,132.16q0-3.32.15-6.6A141.81,141.81,0,0,1,51.41,34a.16.16,0,0,1,.08-.1c.31-.33.57-.59.79-.81a.09.09,0,0,0,0,0l.33-.33a1.68,1.68,0,0,1,.19-.19.46.46,0,0,1,.07-.07l0,0,0,0,0,0h0a56.5,56.5,0,0,1-13.47-5.78c-5.48-3.18-6.74-4.92-6.74-4.92h86.48a62.15,62.15,0,0,1,9,.62h.06c.63.09,1.27.19,1.87.31l1.2.22c.42.07.83.16,1.22.26s.81.17,1.21.28c.57.13,1.13.29,1.68.44,1,.28,1.91.57,2.81.9.31.1.6.2.89.32a41.32,41.32,0,0,1,7.2,3.51l1,.67c.62.41,1.21.83,1.74,1.22a30.3,30.3,0,0,1,2.7,2.26c.41.36.79.73,1.14,1.08.6.6,1.1,1.17,1.53,1.68.24.28.44.54.63.78a16.3,16.3,0,0,1,1.14,1.63l0,.09h1.29a121.33,121.33,0,0,1,14,1.9c29.27,8.73,7.11,44.69,7.11,44.69,1.45-23.92-16.55-19.85-21.27-18.37a13.14,13.14,0,0,1-2.32.5c-7.88,1-51.66,8.37-43.91,55.11l.06.28a89.94,89.94,0,0,0,2.4,10.24.34.34,0,0,0,0,.12q1.83,6.66,4.3,13.06c.27.7.55,1.42.84,2.13q.62,1.54,1.29,3.09c.33.78.65,1.55,1,2.31.57,1.25,1.16,2.51,1.76,3.75.38.81.79,1.59,1.2,2.39.7,1.36,1.41,2.72,2.15,4.05.34.62.69,1.26,1,1.88.45.79.91,1.56,1.38,2.34s.92,1.54,1.39,2.3,1,1.51,1.46,2.27.91,1.39,1.38,2.08,1.06,1.57,1.61,2.34q4.11,5.84,8.75,11.19c.62.73,1.26,1.43,1.9,2.14.39.44.8.91,1.23,1.36l1.72,1.83c1.62,1.69,3.27,3.32,5,4.94l2.08,1.93c1.4,1.27,2.82,2.51,4.28,3.73.73.62,1.45,1.22,2.19,1.8l.68.55c2.85,2.27,7.66,5.76,10.71,7.75.83.54,1.67,1.08,2.52,1.61q4.56,2.86,9.35,5.36l1.79.93c3.87,2,7.86,3.75,11.94,5.35.86.36,1.73.69,2.63,1l1.44.54,1.86.65c.86.31,1.73.6,2.61.88,4.49,1.44,9.08,2.68,13.76,3.68.93.2,1.85.39,2.8.56.74.16,1.5.3,2.25.42.91.17,1.84.32,2.77.46s1.86.29,2.79.41l2.78.35,2,.22,1.56.16c1.14.1,2.29.18,3.44.25,1.65.12,3.32.21,5,.26.55,0,1.1,0,1.63,0Z" transform="translate(-12.1 -21.65)"/><path class="cls-1" d="M299,216.8V87.42c0-37.16,19.27-59.19,55.75-59.19s55.74,22,55.74,59.19v25.46H374.68V85c0-15.83-7.57-22.37-18.93-22.37S336.82,69.18,336.82,85V219.55c0,15.83,7.57,22,18.93,22s18.93-6.2,18.93-22V182.73h35.78V216.8c0,37.16-19.27,59.19-55.74,59.19S299,254,299,216.8Z" transform="translate(-12.1 -21.65)"/><path class="cls-1" d="M433.17,31.67H471V272.55H433.17Z" transform="translate(-12.1 -21.65)"/><path class="cls-1" d="M499.23,31.67h47.49l36.82,144.18h.69V31.67H618V272.55H579.07L533.64,96.71H533V272.55H499.23Z" transform="translate(-12.1 -21.65)"/><path class="cls-1" d="M646.16,31.67H749.39V66.08H684v63.66h52v34.41H684v74h65.38v34.41H646.16Z" transform="translate(-12.1 -21.65)"/><path class="cls-1" d="M800.31,31.67h51.28l39.22,240.88H853l-6.88-47.83v.68h-43l-6.88,47.15h-35.1Zm41.3,161L824.75,73.65h-.69L807.54,192.71Z" transform="translate(-12.1 -21.65)"/><path class="cls-1" d="M909.05,31.67H946.9V238.14h62.28v34.41H909.05Z" transform="translate(-12.1 -21.65)"/></svg>