<svg id="Layer_1" data-name="Layer 1" xmlns="http://www.w3.org/2000/svg" viewBox="0 0 499.64 498.63"><defs><style>.cls-1{fill:#221f1f;}.cls-2{fill:#b72027;}.cls-3{fill:#e12228;}</style></defs><path class="cls-1" d="M80.72,65.8A249.26,249.26,0,0,0,194.56,492.49a243.49,243.49,0,0,0,30.13,4.87,248.54,248.54,0,0,0,25.12,1.26q12.18,0,24.07-1.15a243.37,243.37,0,0,0,29.49-4.62A249.53,249.53,0,0,0,499.64,249.29c0-96.72-55.21-180.57-135.9-221.91A249.93,249.93,0,0,0,123.6,34.13Z" transform="translate(0 0.01)"/><path class="cls-2" d="M271.72,384.86a1,1,0,0,1-.31.25,27.86,27.86,0,0,1-6.36,3.31A33.29,33.29,0,0,0,271.72,384.86Z" transform="translate(0 0.01)"/><path class="cls-2" d="M194.56,492.49A249.5,249.5,0,0,1,58.63,409.78c1.63-5.1,3.79-9.5,8.66-12.64,7.23-4.66,36.05-17.1,56.53-25.23,20.1-8,35.35-14.24,39.55-21.55-1.37,3-.25,12.36.81,21,1.15,9,8.55,52.22,13.34,68.92C179.91,448.57,186.74,470.65,194.56,492.49Z" transform="translate(0 0.01)"/><path class="cls-3" d="M352.24,253.08c-5.8,7.26-14.37,8.35-14.26,8C333.52,280.15,320.21,302,320.21,302c-1.32,40.36-34.67,72.09-45.49,80.64a27.83,27.83,0,0,1-2.89,2.13s-.08.05-.11.08a1,1,0,0,1-.31.25c-16.64,14.41-44.42-.28-44.42-.28-29-19.42-44.73-58.18-44.73-58.18l-3.34-24.1c-15-24.33-17.62-41.48-17.62-41.48s-4.52-1.66-11.22-6.73c-12.8-9.67-18.66-39-4.87-48,4.71-3.06,11.35-4.52,12.95,2.63-.93-4.15-1-8.58-1.43-12.78q-1.56-16.65-2.47-33.32c-1.43-26.52,13.76-98.52,94-98.52,52.75,0,77.38,27.3,85.62,44.76s8.92,37.14,9.65,54.74c.64,15.36-2.13,39.26-2.86,45.15.64-2.55,3.16-5.66,6.64-5C368,207.81,362,241,352.24,253.08Z" transform="translate(0 0.01)"/><path class="cls-2" d="M439.86,411.12a249.4,249.4,0,0,1-136.5,81.73c7.85-22,14.75-44.23,17.16-52.61,4.82-16.7,12.22-59.89,13.34-68.92,1.09-8.6,2.18-18,.81-21,4.21,7.31,19.48,13.54,39.58,21.55,20.48,8.13,49.3,20.57,56.5,25.23C436.05,400.53,438.12,405.46,439.86,411.12Z" transform="translate(0 0.01)"/><path class="cls-2" d="M273.88,497.47q-11.89,1.14-24.07,1.15a248.54,248.54,0,0,1-25.12-1.26l11.07-74.86s-2.24-1.51-4.54-5.72c-2.94-5.41-5.91-15.21-4.23-31.95,0,0,22.83,10.84,44.42.28a1,1,0,0,0,.31-.25s.09-.05.11-.08c1.55,15.1-.86,24.58-3.58,30.27-2.69,5.52-5.66,7.45-5.66,7.45Z" transform="translate(0 0.01)"/><path class="cls-3" d="M274.72,382.65a27.83,27.83,0,0,1-2.89,2.13A16.28,16.28,0,0,1,274.72,382.65Z" transform="translate(0 0.01)"/></svg>